  0
SECTION
  2
HEADER
  9
$ACADVER
  1
AC1027
  9
$ACADMAINTVER
 70
105
  9
$DWGCODEPAGE
  3
ANSI_1252
  9
$LASTSAVEDBY
  1
ezdxf
  9
$REQUIREDVERSIONS
160
0
  9
$INSBASE
 10
0.0
 20
0.0
 30
0.0
  9
$EXTMIN
 10
1e+20
 20
1e+20
 30
1e+20
  9
$EXTMAX
 10
-1e+20
 20
-1e+20
 30
-1e+20
  9
$LIMMIN
 10
0.0
 20
0.0
  9
$LIMMAX
 10
420.0
 20
297.0
  9
$ORTHOMODE
 70
0
  9
$REGENMODE
 70
1
  9
$FILLMODE
 70
1
  9
$QTEXTMODE
 70
0
  9
$MIRRTEXT
 70
1
  9
$LTSCALE
 40
1.0
  9
$ATTMODE
 70
1
  9
$TEXTSIZE
 40
2.5
  9
$TRACEWID
 40
1.0
  9
$TEXTSTYLE
  7
Standard
  9
$CLAYER
  8
0
  9
$CELTYPE
  6
ByLayer
  9
$CECOLOR
 62
256
  9
$CELTSCALE
 40
1.0
  9
$DISPSILH
 70
0
  9
$DIMSCALE
 40
1.0
  9
$DIMASZ
 40
2.5
  9
$DIMEXO
 40
0.625
  9
$DIMDLI
 40
3.75
  9
$DIMRND
 40
0.0
  9
$DIMDLE
 40
0.0
  9
$DIMEXE
 40
1.25
  9
$DIMTP
 40
0.0
  9
$DIMTM
 40
0.0
  9
$DIMTXT
 40
2.5
  9
$DIMCEN
 40
2.5
  9
$DIMTSZ
 40
0.0
  9
$DIMTOL
 70
0
  9
$DIMLIM
 70
0
  9
$DIMTIH
 70
0
  9
$DIMTOH
 70
0
  9
$DIMSE1
 70
0
  9
$DIMSE2
 70
0
  9
$DIMTAD
 70
1
  9
$DIMZIN
 70
8
  9
$DIMBLK
  1

  9
$DIMASO
 70
1
  9
$DIMSHO
 70
1
  9
$DIMPOST
  1

  9
$DIMAPOST
  1

  9
$DIMALT
 70
0
  9
$DIMALTD
 70
3
  9
$DIMALTF
 40
0.03937007874
  9
$DIMLFAC
 40
1.0
  9
$DIMTOFL
 70
1
  9
$DIMTVP
 40
0.0
  9
$DIMTIX
 70
0
  9
$DIMSOXD
 70
0
  9
$DIMSAH
 70
0
  9
$DIMBLK1
  1

  9
$DIMBLK2
  1

  9
$DIMSTYLE
  2
ISO-25
  9
$DIMCLRD
 70
0
  9
$DIMCLRE
 70
0
  9
$DIMCLRT
 70
0
  9
$DIMTFAC
 40
1.0
  9
$DIMGAP
 40
0.625
  9
$DIMJUST
 70
0
  9
$DIMSD1
 70
0
  9
$DIMSD2
 70
0
  9
$DIMTOLJ
 70
0
  9
$DIMTZIN
 70
8
  9
$DIMALTZ
 70
0
  9
$DIMALTTZ
 70
0
  9
$DIMUPT
 70
0
  9
$DIMDEC
 70
2
  9
$DIMTDEC
 70
2
  9
$DIMALTU
 70
2
  9
$DIMALTTD
 70
3
  9
$DIMTXSTY
  7
Standard
  9
$DIMAUNIT
 70
0
  9
$DIMADEC
 70
0
  9
$DIMALTRND
 40
0.0
  9
$DIMAZIN
 70
0
  9
$DIMDSEP
 70
44
  9
$DIMATFIT
 70
3
  9
$DIMFRAC
 70
0
  9
$DIMLDRBLK
  1

  9
$DIMLUNIT
 70
2
  9
$DIMLWD
 70
-2
  9
$DIMLWE
 70
-2
  9
$DIMTMOVE
 70
0
  9
$DIMFXL
 40
1.0
  9
$DIMFXLON
 70
0
  9
$DIMJOGANG
 40
0.785398163397
  9
$DIMTFILL
 70
0
  9
$DIMTFILLCLR
 70
0
  9
$DIMARCSYM
 70
0
  9
$DIMLTYPE
  6

  9
$DIMLTEX1
  6

  9
$DIMLTEX2
  6

  9
$DIMTXTDIRECTION
 70
0
  9
$LUNITS
 70
2
  9
$LUPREC
 70
4
  9
$SKETCHINC
 40
1.0
  9
$FILLETRAD
 40
10.0
  9
$AUNITS
 70
0
  9
$AUPREC
 70
2
  9
$MENU
  1
.
  9
$ELEVATION
 40
0.0
  9
$PELEVATION
 40
0.0
  9
$THICKNESS
 40
0.0
  9
$LIMCHECK
 70
0
  9
$CHAMFERA
 40
0.0
  9
$CHAMFERB
 40
0.0
  9
$CHAMFERC
 40
0.0
  9
$CHAMFERD
 40
0.0
  9
$SKPOLY
 70
0
  9
$TDCREATE
 40
2461308.4225925924
  9
$TDUCREATE
 40
2458532.153996898
  9
$TDUPDATE
 40
2461308.4225925924
  9
$TDUUPDATE
 40
2458532.1544311
  9
$TDINDWG
 40
0.0
  9
$TDUSRTIMER
 40
0.0
  9
$USRTIMER
 70
1
  9
$ANGBASE
 50
0.0
  9
$ANGDIR
 70
0
  9
$PDMODE
 70
0
  9
$PDSIZE
 40
0.0
  9
$PLINEWID
 40
0.0
  9
$SPLFRAME
 70
0
  9
$SPLINETYPE
 70
6
  9
$SPLINESEGS
 70
8
  9
$HANDSEED
  5
53
  9
$SURFTAB1
 70
6
  9
$SURFTAB2
 70
6
  9
$SURFTYPE
 70
6
  9
$SURFU
 70
6
  9
$SURFV
 70
6
  9
$UCSBASE
  2

  9
$UCSNAME
  2

  9
$UCSORG
 10
0.0
 20
0.0
 30
0.0
  9
$UCSXDIR
 10
1.0
 20
0.0
 30
0.0
  9
$UCSYDIR
 10
0.0
 20
1.0
 30
0.0
  9
$UCSORTHOREF
  2

  9
$UCSORTHOVIEW
 70
0
  9
$UCSORGTOP
 10
0.0
 20
0.0
 30
0.0
  9
$UCSORGBOTTOM
 10
0.0
 20
0.0
 30
0.0
  9
$UCSORGLEFT
 10
0.0
 20
0.0
 30
0.0
  9
$UCSORGRIGHT
 10
0.0
 20
0.0
 30
0.0
  9
$UCSORGFRONT
 10
0.0
 20
0.0
 30
0.0
  9
$UCSORGBACK
 10
0.0
 20
0.0
 30
0.0
  9
$PUCSBASE
  2

  9
$PUCSNAME
  2

  9
$PUCSORG
 10
0.0
 20
0.0
 30
0.0
  9
$PUCSXDIR
 10
1.0
 20
0.0
 30
0.0
  9
$PUCSYDIR
 10
0.0
 20
1.0
 30
0.0
  9
$PUCSORTHOREF
  2

  9
$PUCSORTHOVIEW
 70
0
  9
$PUCSORGTOP
 10
0.0
 20
0.0
 30
0.0
  9
$PUCSORGBOTTOM
 10
0.0
 20
0.0
 30
0.0
  9
$PUCSORGLEFT
 10
0.0
 20
0.0
 30
0.0
  9
$PUCSORGRIGHT
 10
0.0
 20
0.0
 30
0.0
  9
$PUCSORGFRONT
 10
0.0
 20
0.0
 30
0.0
  9
$PUCSORGBACK
 10
0.0
 20
0.0
 30
0.0
  9
$USERI1
 70
0
  9
$USERI2
 70
0
  9
$USERI3
 70
0
  9
$USERI4
 70
0
  9
$USERI5
 70
0
  9
$USERR1
 40
0.0
  9
$USERR2
 40
0.0
  9
$USERR3
 40
0.0
  9
$USERR4
 40
0.0
  9
$USERR5
 40
0.0
  9
$WORLDVIEW
 70
1
  9
$SHADEDGE
 70
3
  9
$SHADEDIF
 70
70
  9
$TILEMODE
 70
1
  9
$MAXACTVP
 70
64
  9
$PINSBASE
 10
0.0
 20
0.0
 30
0.0
  9
$PLIMCHECK
 70
0
  9
$PEXTMIN
 10
1e+20
 20
1e+20
 30
1e+20
  9
$PEXTMAX
 10
-1e+20
 20
-1e+20
 30
-1e+20
  9
$PLIMMIN
 10
0.0
 20
0.0
  9
$PLIMMAX
 10
420.0
 20
297.0
  9
$UNITMODE
 70
0
  9
$VISRETAIN
 70
1
  9
$PLINEGEN
 70
0
  9
$PSLTSCALE
 70
1
  9
$TREEDEPTH
 70
3020
  9
$CMLSTYLE
  2
Standard
  9
$CMLJUST
 70
0
  9
$CMLSCALE
 40
20.0
  9
$PROXYGRAPHICS
 70
1
  9
$MEASUREMENT
 70
1
  9
$CELWEIGHT
370
-1
  9
$ENDCAPS
280
0
  9
$JOINSTYLE
280
0
  9
$LWDISPLAY
290
0
  9
$INSUNITS
 70
6
  9
$HYPERLINKBASE
  1

  9
$STYLESHEET
  1

  9
$XEDIT
290
1
  9
$CEPSNTYPE
380
0
  9
$PSTYLEMODE
290
1
  9
$FINGERPRINTGUID
  2
{01957C04-21F8-4B9E-9F6B-6EAB8F1B2BBC}
  9
$VERSIONGUID
  2
{96D55799-3948-4989-9F49-83720689F8FA}
  9
$EXTNAMES
290
1
  9
$PSVPSCALE
 40
0.0
  9
$OLESTARTUP
290
0
  9
$SORTENTS
280
127
  9
$INDEXCTL
280
0
  9
$HIDETEXT
280
1
  9
$XCLIPFRAME
280
1
  9
$HALOGAP
280
0
  9
$OBSCOLOR
 70
257
  9
$OBSLTYPE
280
0
  9
$INTERSECTIONDISPLAY
280
0
  9
$INTERSECTIONCOLOR
 70
257
  9
$DIMASSOC
280
2
  9
$PROJECTNAME
  1

  9
$CAMERADISPLAY
290
0
  9
$LENSLENGTH
 40
50.0
  9
$CAMERAHEIGHT
 40
0.0
  9
$STEPSPERSEC
 40
24.0
  9
$STEPSIZE
 40
100.0
  9
$3DDWFPREC
 40
2.0
  9
$PSOLWIDTH
 40
0.005
  9
$PSOLHEIGHT
 40
0.08
  9
$LOFTANG1
 40
1.570796326795
  9
$LOFTANG2
 40
1.570796326795
  9
$LOFTMAG1
 40
0.0
  9
$LOFTMAG2
 40
0.0
  9
$LOFTPARAM
 70
7
  9
$LOFTNORMALS
280
1
  9
$LATITUDE
 40
37.795
  9
$LONGITUDE
 40
-122.394
  9
$NORTHDIRECTION
 40
0.0
  9
$TIMEZONE
 70
-8000
  9
$LIGHTGLYPHDISPLAY
280
1
  9
$TILEMODELIGHTSYNCH
280
1
  9
$CMATERIAL
347
20
  9
$SOLIDHIST
280
0
  9
$SHOWHIST
280
1
  9
$DWFFRAME
280
2
  9
$DGNFRAME
280
2
  9
$REALWORLDSCALE
290
1
  9
$INTERFERECOLOR
 62
256
  9
$CSHADOW
280
0
  9
$SHADOWPLANELOCATION
 40
0.0
  0
ENDSEC
  0
SECTION
  2
CLASSES
  0
CLASS
  1
ACDBDICTIONARYWDFLT
  2
AcDbDictionaryWithDefault
  3
ObjectDBX Classes
 90
0
 91
0
280
0
281
0
  0
CLASS
  1
SUN
  2
AcDbSun
  3
SCENEOE
 90
1153
 91
0
280
0
281
0
  0
CLASS
  1
VISUALSTYLE
  2
AcDbVisualStyle
  3
ObjectDBX Classes
 90
4095
 91
0
280
0
281
0
  0
CLASS
  1
MATERIAL
  2
AcDbMaterial
  3
ObjectDBX Classes
 90
1153
 91
0
280
0
281
0
  0
CLASS
  1
SCALE
  2
AcDbScale
  3
ObjectDBX Classes
 90
1153
 91
0
280
0
281
0
  0
CLASS
  1
TABLESTYLE
  2
AcDbTableStyle
  3
ObjectDBX Classes
 90
4095
 91
0
280
0
281
0
  0
CLASS
  1
MLEADERSTYLE
  2
AcDbMLeaderStyle
  3
ACDB_MLEADERSTYLE_CLASS
 90
4095
 91
0
280
0
281
0
  0
CLASS
  1
DICTIONARYVAR
  2
AcDbDictionaryVar
  3
ObjectDBX Classes
 90
0
 91
0
280
0
281
0
  0
CLASS
  1
CELLSTYLEMAP
  2
AcDbCellStyleMap
  3
ObjectDBX Classes
 90
1152
 91
0
280
0
281
0
  0
CLASS
  1
MENTALRAYRENDERSETTINGS
  2
AcDbMentalRayRenderSettings
  3
SCENEOE
 90
1024
 91
0
280
0
281
0
  0
CLASS
  1
ACDBDETAILVIEWSTYLE
  2
AcDbDetailViewStyle
  3
ObjectDBX Classes
 90
1025
 91
0
280
0
281
0
  0
CLASS
  1
ACDBSECTIONVIEWSTYLE
  2
AcDbSectionViewStyle
  3
ObjectDBX Classes
 90
1025
 91
0
280
0
281
0
  0
CLASS
  1
RASTERVARIABLES
  2
AcDbRasterVariables
  3
ISM
 90
0
 91
0
280
0
281
0
  0
CLASS
  1
LAYOUT
  2
AcDbLayout
  3
ObjectDBX Classes
 90
0
 91
0
280
0
281
0
  0
CLASS
  1
ACDBPLACEHOLDER
  2
AcDbPlaceHolder
  3
ObjectDBX Classes
 90
0
 91
0
280
0
281
0
  0
ENDSEC
  0
SECTION
  2
TABLES
  0
TABLE
  2
VPORT
  5
8
330
0
100
AcDbSymbolTable
 70
1
  0
VPORT
  5
23
330
8
100
AcDbSymbolTableRecord
100
AcDbViewportTableRecord
  2
*Active
 70
0
 10
0.0
 20
0.0
 11
1.0
 21
1.0
 12
0.0
 22
0.0
 13
0.0
 23
0.0
 14
0.5
 24
0.5
 15
0.5
 25
0.5
 16
0.0
 26
0.0
 36
1.0
 17
0.0
 27
0.0
 37
0.0
 40
1000.0
 41
1.34
 42
50.0
 43
0.0
 44
0.0
 50
0.0
 51
0.0
 71
0
 72
1000
 73
1
 74
3
 75
0
 76
0
 77
0
 78
0
281
0
 65
0
146
0.0
  0
ENDTAB
  0
TABLE
  2
LTYPE
  5
2
330
0
100
AcDbSymbolTable
 70
3
  0
LTYPE
  5
24
330
2
100
AcDbSymbolTableRecord
100
AcDbLinetypeTableRecord
  2
ByBlock
 70
0
  3

 72
65
 73
0
 40
0.0
  0
LTYPE
  5
25
330
2
100
AcDbSymbolTableRecord
100
AcDbLinetypeTableRecord
  2
ByLayer
 70
0
  3

 72
65
 73
0
 40
0.0
  0
LTYPE
  5
26
330
2
100
AcDbSymbolTableRecord
100
AcDbLinetypeTableRecord
  2
Continuous
 70
0
  3

 72
65
 73
0
 40
0.0
  0
ENDTAB
  0
TABLE
  2
LAYER
  5
1
330
0
100
AcDbSymbolTable
 70
4
  0
LAYER
  5
27
330
1
100
AcDbSymbolTableRecord
100
AcDbLayerTableRecord
  2
0
 70
0
 62
7
  6
Continuous
370
-3
390
13
347
21
  0
LAYER
  5
28
330
1
100
AcDbSymbolTableRecord
100
AcDbLayerTableRecord
  2
Defpoints
 70
0
 62
7
  6
Continuous
290
0
370
-3
390
13
347
21
  0
LAYER
  5
4D
330
1
100
AcDbSymbolTableRecord
100
AcDbLayerTableRecord
  2
СП_дендроплан
 70
0
 62
7
  6
Continuous
370
-3
390
F
347
EE
348
0
  0
LAYER
  5
4E
330
1
100
AcDbSymbolTableRecord
100
AcDbLayerTableRecord
  2
СП_зеленые насаждения для ГП
 70
0
 62
250
  6
Continuous
370
-3
390
F
347
EE
348
0
  0
ENDTAB
  0
TABLE
  2
STYLE
  5
5
330
0
100
AcDbSymbolTable
 70
2
  0
STYLE
  5
29
330
5
100
AcDbSymbolTableRecord
100
AcDbTextStyleTableRecord
  2
Standard
 70
0
 40
0.0
 41
1.0
 50
0.0
 71
0
 42
2.5
  3
txt
  4

  0
STYLE
  5
4F
330
5
100
AcDbSymbolTableRecord
100
AcDbTextStyleTableRecord
  2
Ариал Стандарт
 70
0
 40
0.0
 41
1.0
 50
0.0
 71
0
 42
2.5
  3
arial.ttf
  4

  0
ENDTAB
  0
TABLE
  2
VIEW
  5
7
330
0
100
AcDbSymbolTable
 70
0
  0
ENDTAB
  0
TABLE
  2
UCS
  5
6
330
0
100
AcDbSymbolTable
 70
0
  0
ENDTAB
  0
TABLE
  2
APPID
  5
3
330
0
100
AcDbSymbolTable
 70
3
  0
APPID
  5
2A
330
3
100
AcDbSymbolTableRecord
100
AcDbRegAppTableRecord
  2
ACAD
 70
0
  0
APPID
  5
50
330
3
100
AcDbSymbolTableRecord
100
AcDbRegAppTableRecord
  2
HATCHBACKGROUNDCOLOR
 70
0
  0
APPID
  5
51
330
3
100
AcDbSymbolTableRecord
100
AcDbRegAppTableRecord
  2
EZDXF
 70
0
  0
ENDTAB
  0
TABLE
  2
DIMSTYLE
  5
4
330
0
100
AcDbSymbolTable
 70
1
100
AcDbDimStyleTable
  0
DIMSTYLE
105
2B
330
4
100
AcDbSymbolTableRecord
100
AcDbDimStyleTableRecord
  2
Standard
 70
0
 40
1.0
 41
2.5
 42
0.625
 43
3.75
 44
1.25
 45
0.0
 46
0.0
 47
0.0
 48
0.0
 49
2.5
140
2.5
141
2.5
142
0.0
143
0.03937007874
144
1.0
145
0.0
146
1.0
147
0.625
148
0.0
 69
0
 70
0
 71
0
 72
0
 73
0
 74
0
 75
0
 76
0
 77
1
 78
8
 79
3
170
0
171
3
172
1
173
0
174
0
175
0
176
0
177
0
178
0
179
2
271
2
272
2
273
2
274
3
275
0
276
0
277
2
278
44
279
0
280
0
281
0
282
0
283
0
284
8
285
0
286
0
288
0
289
3
290
0
371
-2
372
-2
  0
ENDTAB
  0
TABLE
  2
BLOCK_RECORD
  5
9
330
0
100
AcDbSymbolTable
 70
5
  0
BLOCK_RECORD
  5
17
330
9
100
AcDbSymbolTableRecord
100
AcDbBlockTableRecord
  2
*Model_Space
340
1A
 70
0
280
1
281
0
  0
BLOCK_RECORD
  5
1B
330
9
100
AcDbSymbolTableRecord
100
AcDbBlockTableRecord
  2
*Paper_Space
340
1E
 70
0
280
1
281
0
  0
BLOCK_RECORD
  5
2F
330
9
100
AcDbSymbolTableRecord
100
AcDbBlockTableRecord
  2
Дерево_Л_С
340
0
 70
0
280
1
281
0
  0
BLOCK_RECORD
  5
38
330
9
100
AcDbSymbolTableRecord
100
AcDbBlockTableRecord
  2
Дерево_Х_С
340
0
 70
0
280
1
281
0
  0
BLOCK_RECORD
  5
44
330
9
100
AcDbSymbolTableRecord
100
AcDbBlockTableRecord
  2
Куст_Л_С
340
0
 70
0
280
1
281
0
  0
ENDTAB
  0
ENDSEC
  0
SECTION
  2
BLOCKS
  0
BLOCK
  5
18
330
17
100
AcDbEntity
  8
0
100
AcDbBlockBegin
  2
*Model_Space
 70
0
 10
0.0
 20
0.0
 30
0.0
  3
*Model_Space
  1

  0
ENDBLK
  5
19
330
17
100
AcDbEntity
  8
0
100
AcDbBlockEnd
  0
BLOCK
  5
1C
330
1B
100
AcDbEntity
  8
0
100
AcDbBlockBegin
  2
*Paper_Space
 70
0
 10
0.0
 20
0.0
 30
0.0
  3
*Paper_Space
  1

  0
ENDBLK
  5
1D
330
1B
100
AcDbEntity
  8
0
100
AcDbBlockEnd
  0
BLOCK
  5
30
330
2F
100
AcDbEntity
  8
0
100
AcDbBlockBegin
  2
Дерево_Л_С
 70
2
 10
0.0
 20
0.0
 30
0.0
  3
Дерево_Л_С
  1

  0
CIRCLE
  5
32
330
2F
100
AcDbEntity
  8
СП_зеленые насаждения для ГП
 62
7
100
AcDbCircle
 10
0.0
 20
0.0
 30
0.0
 40
0.1525293461636466
  0
CIRCLE
  5
33
330
2F
100
AcDbEntity
  8
СП_дендроплан
370
30
100
AcDbCircle
 10
0.0
 20
0.0
 30
0.0
 40
0.6
  0
HATCH
  5
34
330
2F
100
AcDbEntity
  8
СП_дендроплан
 62
7
370
30
420
16711422
100
AcDbHatch
 10
0.0
 20
0.0
 30
0.0
210
0.0
220
0.0
230
1.0
  2
SOLID
 70
1
 71
0
 91
1
 92
7
 72
1
 73
1
 93
2
 10
0.6
 20
0.0
 42
1.0
 10
-0.6
 20
0.0
 42
1.0
 97
0
 75
1
 76
1
 47
0.003632486949899
 98
1
 10
-0.0691045945470208
 20
-0.0565720388881772
450
0
451
0
460
0.0
461
0.0
452
0
462
1.0
453
2
463
0
 63
5
421
255
463
1
 63
2
421
16776960
470
LINEAR
  0
ATTDEF
  5
35
330
2F
100
AcDbEntity
  8
СП_дендроплан
100
AcDbText
 10
2.283232026094058
 20
-0.5929435151444153
 30
0.0
 40
1.3
  1

  7
Ариал Стандарт
 11
2.283232026094058
 21
0.7070564848555847
 31
0.0
100
AcDbAttributeDefinition
  3

  2
НОМЕР
 70
0
 74
3
  0
HATCH
  5
36
330
2F
100
AcDbEntity
  8
СП_зеленые насаждения для ГП
100
AcDbHatch
 10
0.0
 20
0.0
 30
0.0
210
0.0
220
0.0
230
1.0
  2
SOLID
 70
1
 71
0
 91
1
 92
1
 93
102
 72
1
 10
0.2109500533316185
 20
2.136767391628548
 11
0.1712919348682466
 21
2.149991763422489
 72
1
 10
0.1712919348682512
 20
2.149991763422492
 11
0.1712919348682512
 21
2.189664878805788
 72
1
 10
0.1712919348682512
 20
2.189664878805786
 11
0.1845113076901837
 21
2.255786737776906
 72
1
 10
0.1845113076901837
 20
2.255786737776911
 11
0.1580725620428886
 21
2.348357340337446
 72
1
 10
0.158072562042884
 20
2.348357340337441
 11
0.158072562042884
 21
2.467376686487336
 72
1
 10
0.158072562042884
 20
2.467376686487336
 11
0.3828019000278736
 21
2.42770357110404
 72
1
 10
0.3828019000278782
 20
2.427703571104042
 11
0.4621181369646993
 21
2.427703571104042
 72
1
 10
0.4621181369646993
 20
2.427703571104042
 11
0.6736281021301358
 21
2.335132968543507
 72
1
 10
0.6736281021301358
 20
2.335132968543507
 11
1.01733179551568
 21
2.229337994189086
 72
1
 10
1.017331795515679
 20
2.229337994189084
 11
1.162744896563899
 21
2.097094276245252
 72
1
 10
1.162744896563899
 20
2.09709427624525
 11
1.387474234551948
 21
1.84583121215158
 72
1
 10
1.387474234551948
 20
1.845831212151582
 11
1.440351725841474
 21
1.845831212151582
 72
1
 10
1.440351725841474
 20
1.845831212151582
 11
1.612203572536993
 21
1.779709353178872
 72
1
 10
1.612203572536989
 20
1.779709353178869
 11
1.969126638748274
 21
1.475548801909489
 72
1
 10
1.969126638748274
 20
1.475548801909492
 11
2.061662248503908
 21
1.263958853199066
 72
1
 10
2.061662248503913
 20
1.263958853199066
 11
2.246733468022054
 21
0.9862470455175136
 72
1
 10
2.246733468022049
 20
0.9862470455175114
 11
2.220294722374384
 21
0.8540033275752656
 72
1
 10
2.220294722374384
 20
0.8540033275752656
 11
2.127759112621861
 21
0.7217596096314345
 72
1
 10
2.127759112621861
 20
0.7217596096314367
 11
1.955907265925606
 21
0.8011058403965009
 72
1
 10
1.955907265925601
 20
0.8011058403964962
 11
1.903029774633386
 21
0.721759609631432
 72
1
 10
1.903029774633386
 20
0.7217596096314367
 11
2.035223502862422
 21
0.6556377506587816
 72
1
 10
2.035223502862423
 20
0.6556377506587793
 11
2.180636603910591
 21
0.629189007070899
 72
1
 10
2.180636603910591
 20
0.6291890070709013
 11
2.312830332133448
 21
0.6688621224541972
 72
1
 10
2.312830332133448
 20
0.668862122454195
 11
2.352488450606846
 21
0.4572721737438206
 72
1
 10
2.352488450606851
 20
0.4572721737438206
 11
2.365707823428783
 21
0.245682225033393
 72
1
 10
2.365707823428783
 20
0.2456822250333952
 11
2.418585314718309
 21
-0.2700682749464076
 72
1
 10
2.418585314718305
 20
-0.2700682749464076
 11
2.405365941892942
 21
-0.4419851082735393
 72
1
 10
2.405365941892942
 20
-0.4419851082735393
 11
2.339269077781484
 21
-0.5874531980112586
 72
1
 10
2.339269077781488
 20
-0.5874531980112608
 11
2.29961095931115
 21
-0.759370031338388
 72
1
 10
2.299610959311145
 20
-0.759370031338388
 11
2.167417231085229
 21
-1.063530582607768
 72
1
 10
2.167417231085228
 20
-1.063530582607765
 11
2.140978485440673
 21
-1.18254992875766
 72
1
 10
2.140978485440673
 20
-1.18254992875766
 11
2.061662248503913
 21
-1.314793646699957
 72
1
 10
2.061662248503913
 20
-1.314793646699957
 11
1.982346011567091
 21
-1.407364249261971
 72
1
 10
1.982346011567092
 20
-1.407364249261973
 11
1.903029774633391
 21
-1.57928108258757
 72
1
 10
1.903029774633386
 20
-1.579281082587573
 11
1.651861691001096
 21
-1.777646659504064
 72
1
 10
1.651861691001101
 20
-1.777646659504059
 11
1.638642318181548
 21
-1.658627313354164
 72
1
 10
1.638642318181543
 20
-1.658627313354169
 11
1.66508106382651
 21
-1.552832338999748
 72
1
 10
1.665081063826515
 20
-1.552832338999746
 11
1.717958555118309
 21
-1.314793646699959
 72
1
 10
1.717958555118309
 20
-1.314793646699957
 11
1.585764826889703
 21
-1.433812992849851
 72
1
 10
1.585764826889703
 20
-1.433812992849851
 11
1.57254545406703
 21
-1.60572982617693
 72
1
 10
1.57254545406703
 20
-1.605729826176927
 11
1.480009844311026
 21
-1.790871031297998
 72
1
 10
1.480009844311021
 20
-1.790871031297998
 11
1.466790471488769
 21
-1.883441633858478
 72
1
 10
1.466790471488769
 20
-1.883441633858478
 11
1.480009844311021
 21
-1.976012236419013
 72
1
 10
1.480009844311021
 20
-1.976012236419013
 11
1.21562238785648
 21
-2.095031582568908
 72
1
 10
1.215622387856484
 20
-2.095031582568908
 11
0.8719186944674506
 21
-2.333070274867163
 72
1
 10
0.8719186944674507
 20
-2.33307027486716
 11
0.6339699836601629
 21
-2.346294646661101
 72
1
 10
0.6339699836601629
 20
-2.346294646661104
 11
0.501776255434237
 21
-2.399192133839873
 72
1
 10
0.5017762554342416
 20
-2.399192133839873
 11
0.3695825272052051
 21
-2.425640877427698
 72
1
 10
0.3695825272052051
 20
-2.425640877427695
 11
0.1184144435725501
 21
-2.425640877427695
 72
1
 10
0.1184144435725454
 20
-2.425640877427695
 11
-0.0798761487647788
 21
-2.438865249223166
 72
1
 10
-0.0798761487647787
 20
-2.438865249223167
 11
-0.2252892498129982
 21
-2.45208962101552
 72
1
 10
-0.2252892498129982
 20
-2.452089621015523
 11
-0.331044232394367
 21
-2.372743390250458
 72
1
 10
-0.3310442323943647
 20
-2.372743390250458
 11
-0.3971410965057723
 21
-2.293397159483864
 72
1
 10
-0.3971410965057723
 20
-2.293397159483867
 11
-0.4500185878006772
 21
-2.187602185129446
 72
1
 10
-0.4500185878006772
 20
-2.187602185129443
 11
-0.3971410965057723
 21
-2.028909723597783
 72
1
 10
-0.3971410965057723
 20
-2.028909723597783
 11
-0.4500185878006772
 21
-1.949563492831189
 72
1
 10
-0.4500185878006772
 20
-1.949563492831191
 11
-0.5293348247348065
 21
-1.989236608214487
 72
1
 10
-0.5293348247348089
 20
-1.989236608214484
 11
-0.5822123160235387
 21
-2.240499672306625
 72
1
 10
-0.5822123160235387
 20
-2.240499672306625
 11
-0.4764573334425356
 21
-2.33307027486716
 72
1
 10
-0.4764573334425378
 20
-2.33307027486716
 11
-0.6218704344907618
 21
-2.385967762044397
 72
1
 10
-0.6218704344907618
 20
-2.385967762044402
 11
-0.7144060442498326
 21
-2.266948415894507
 72
1
 10
-0.7144060442498302
 20
-2.266948415894507
 11
-0.8465997724788668
 21
-2.227275300512741
 72
1
 10
-0.8465997724788669
 20
-2.227275300512741
 11
-1.058109737641609
 21
-2.134704697952206
 72
1
 10
-1.058109737641609
 20
-2.134704697952206
 11
-1.256400329981993
 21
-2.121480326156735
 72
1
 10
-1.256400329981993
 20
-2.121480326156735
 11
-1.441471549497068
 21
-2.015685351802316
 72
1
 10
-1.441471549497066
 20
-2.015685351802316
 11
-1.679420260304358
 21
-1.764422287710176
 72
1
 10
-1.679420260304363
 20
-1.764422287710176
 11
-1.917368971111653
 21
-1.592505454383044
 72
1
 10
-1.91736897111165
 20
-1.592505454383044
 11
-2.036343326518387
 21
-1.407364249261973
 72
1
 10
-2.036343326518389
 20
-1.407364249261973
 11
-2.142098309099758
 21
-1.208998672345487
 72
1
 10
-2.142098309099755
 20
-1.208998672345487
 11
-2.300730782970229
 21
-0.8783893774867504
 72
1
 10
-2.300730782970227
 20
-0.8783893774867504
 11
-2.168537054741241
 21
-0.8651650056928114
 72
1
 10
-2.168537054741241
 20
-0.8651650056928114
 11
-2.076001444981752
 21
-1.023857467224472
 72
1
 10
-2.076001444981751
 20
-1.023857467224472
 11
-1.917368971111648
 21
-1.063530582607768
 72
1
 10
-1.91736897111165
 20
-1.063530582607765
 11
-1.838052734174885
 21
-1.063530582607765
 72
1
 10
-1.838052734174885
 20
-1.063530582607765
 11
-2.036343326518389
 21
-0.7461456595444489
 72
1
 10
-2.036343326518389
 20
-0.746145659544449
 11
-2.20819517321116
 21
-0.3758632493008309
 72
1
 10
-2.208195173211158
 20
-0.375863249300831
 11
-2.247853291678009
 21
-0.4552094800674273
 72
1
 10
-2.247853291678011
 20
-0.4552094800674273
 11
-2.155317681918572
 21
-0.640350685188498
 72
1
 10
-2.155317681918572
 20
-0.640350685188498
 11
-2.247853291678011
 21
-0.7461456595444513
 72
1
 10
-2.247853291678011
 20
-0.746145659544449
 11
-2.327169528614832
 21
-0.759370031338388
 72
1
 10
-2.327169528614832
 20
-0.759370031338388
 11
-2.393266392728927
 21
-0.4684338518613663
 72
1
 10
-2.393266392728925
 20
-0.4684338518613663
 11
-2.459363256843816
 21
-0.0717026980299212
 72
1
 10
-2.459363256843818
 20
-0.0717026980299212
 11
-2.446143884018451
 21
0.2721309686212243
 72
1
 10
-2.446143884018451
 20
0.2721309686212223
 11
-2.300730782970231
 21
0.6688621224541973
 72
1
 10
-2.300730782970227
 20
0.668862122454195
 11
-2.221414546036521
 21
0.8672276993691515
 72
1
 10
-2.221414546036521
 20
0.8672276993691537
 11
-2.023123953693017
 21
1.449100058320082
 72
1
 10
-2.023123953693021
 20
1.449100058320082
 11
-1.785175242885361
 21
1.621016891647209
 72
1
 10
-1.785175242885359
 20
1.621016891647213
 11
-1.467910295141669
 21
1.898728699328764
 72
1
 10
-1.467910295141671
 20
1.898728699328759
 11
-1.229961584334381
 21
2.083869904449779
 72
1
 10
-1.229961584334379
 20
2.083869904449779
 11
-1.137425974575308
 21
1.832606840357639
 72
1
 10
-1.13742597457531
 20
1.832606840357639
 11
-1.031670991993518
 21
1.925177442918174
 72
1
 10
-1.031670991993518
 20
1.925177442918174
 11
-1.044890364816191
 21
2.229337994189084
 72
1
 10
-1.044890364816191
 20
2.229337994189084
 11
-0.9391353822379376
 21
2.255786737776909
 72
1
 10
-0.9391353822379351
 20
2.255786737776911
 11
-0.6615285529603065
 21
2.335132968543507
 72
1
 10
-0.6615285529603042
 20
2.335132968543507
 11
-0.3574829780419815
 21
2.440927942897979
 72
1
 10
-0.3574829780419838
 20
2.440927942897976
 11
-0.1591923856984799
 21
2.440927942897976
 72
1
 10
-0.1591923856984799
 20
2.440927942897976
 11
0.0258788338200272
 21
2.467376686487336
 72
1
 10
0.0258788338200272
 20
2.467376686487336
 11
0.0523175794611471
 21
2.42770357110404
 72
1
 10
0.0523175794611471
 20
2.427703571104042
 11
0.0655369522834499
 21
2.374806083926805
 72
1
 10
0.0655369522834499
 20
2.374806083926801
 11
0.0787563251088125
 21
2.295459853160204
 72
1
 10
0.0787563251088125
 20
2.295459853160204
 11
0.1051950707568483
 21
2.176440507010314
 72
1
 10
0.1051950707568483
 20
2.176440507010314
 11
0.2109500533316184
 21
2.136767391628548
 97
0
 75
1
 76
1
 98
1
 10
-33.19763430152992
 20
-26.2138906985355
450
0
451
0
460
0.0
461
0.0
452
0
462
1.0
453
2
463
0
 63
5
421
255
463
1
 63
2
421
16776960
470
LINEAR
  0
LWPOLYLINE
  5
37
330
2F
100
AcDbEntity
  8
СП_зеленые насаждения для ГП
 62
250
370
9
440
33554585
100
AcDbPolyline
 90
102
 70
1
 10
0.2109500533316185
 20
2.136767391628548
 10
0.1712919348682512
 20
2.149991763422492
 10
0.1712919348682512
 20
2.189664878805786
 10
0.1845113076901837
 20
2.255786737776911
 10
0.158072562042884
 20
2.348357340337441
 10
0.158072562042884
 20
2.467376686487336
 10
0.3828019000278782
 20
2.427703571104042
 10
0.4621181369646993
 20
2.427703571104042
 10
0.6736281021301358
 20
2.335132968543507
 10
1.017331795515679
 20
2.229337994189084
 10
1.162744896563899
 20
2.09709427624525
 10
1.387474234551948
 20
1.845831212151582
 10
1.440351725841474
 20
1.845831212151582
 10
1.612203572536989
 20
1.779709353178869
 10
1.969126638748274
 20
1.475548801909492
 10
2.061662248503913
 20
1.263958853199066
 10
2.246733468022049
 20
0.9862470455175114
 10
2.220294722374384
 20
0.8540033275752656
 10
2.127759112621861
 20
0.7217596096314367
 10
1.955907265925601
 20
0.8011058403964962
 10
1.903029774633386
 20
0.7217596096314367
 10
2.035223502862423
 20
0.6556377506587793
 10
2.180636603910591
 20
0.6291890070709013
 10
2.312830332133448
 20
0.668862122454195
 10
2.352488450606851
 20
0.4572721737438206
 10
2.365707823428783
 20
0.2456822250333952
 10
2.418585314718305
 20
-0.2700682749464076
 10
2.405365941892942
 20
-0.4419851082735393
 10
2.339269077781488
 20
-0.5874531980112608
 10
2.299610959311145
 20
-0.759370031338388
 10
2.167417231085228
 20
-1.063530582607765
 10
2.140978485440673
 20
-1.18254992875766
 10
2.061662248503913
 20
-1.314793646699957
 10
1.982346011567092
 20
-1.407364249261973
 10
1.903029774633386
 20
-1.579281082587573
 10
1.651861691001101
 20
-1.777646659504059
 10
1.638642318181543
 20
-1.658627313354169
 10
1.665081063826515
 20
-1.552832338999746
 10
1.717958555118309
 20
-1.314793646699957
 10
1.585764826889703
 20
-1.433812992849851
 10
1.57254545406703
 20
-1.605729826176927
 10
1.480009844311021
 20
-1.790871031297998
 10
1.466790471488769
 20
-1.883441633858478
 10
1.480009844311021
 20
-1.976012236419013
 10
1.215622387856484
 20
-2.095031582568908
 10
0.8719186944674507
 20
-2.33307027486716
 10
0.6339699836601629
 20
-2.346294646661104
 10
0.5017762554342416
 20
-2.399192133839873
 10
0.3695825272052051
 20
-2.425640877427695
 10
0.1184144435725454
 20
-2.425640877427695
 10
-0.0798761487647787
 20
-2.438865249223167
 10
-0.2252892498129982
 20
-2.452089621015523
 10
-0.3310442323943647
 20
-2.372743390250458
 10
-0.3971410965057723
 20
-2.293397159483867
 10
-0.4500185878006772
 20
-2.187602185129443
 10
-0.3971410965057723
 20
-2.028909723597783
 10
-0.4500185878006772
 20
-1.949563492831191
 10
-0.5293348247348089
 20
-1.989236608214484
 10
-0.5822123160235387
 20
-2.240499672306625
 10
-0.4764573334425378
 20
-2.33307027486716
 10
-0.6218704344907618
 20
-2.385967762044402
 10
-0.7144060442498302
 20
-2.266948415894507
 10
-0.8465997724788669
 20
-2.227275300512741
 10
-1.058109737641609
 20
-2.134704697952206
 10
-1.256400329981993
 20
-2.121480326156735
 10
-1.441471549497066
 20
-2.015685351802316
 10
-1.679420260304363
 20
-1.764422287710176
 10
-1.91736897111165
 20
-1.592505454383044
 10
-2.036343326518389
 20
-1.407364249261973
 10
-2.142098309099755
 20
-1.208998672345487
 10
-2.300730782970227
 20
-0.8783893774867504
 10
-2.168537054741241
 20
-0.8651650056928114
 10
-2.076001444981751
 20
-1.023857467224472
 10
-1.91736897111165
 20
-1.063530582607765
 10
-1.838052734174885
 20
-1.063530582607765
 10
-2.036343326518389
 20
-0.746145659544449
 10
-2.208195173211158
 20
-0.375863249300831
 10
-2.247853291678011
 20
-0.4552094800674273
 10
-2.155317681918572
 20
-0.640350685188498
 10
-2.247853291678011
 20
-0.746145659544449
 10
-2.327169528614832
 20
-0.759370031338388
 10
-2.393266392728925
 20
-0.4684338518613663
 10
-2.459363256843818
 20
-0.0717026980299212
 10
-2.446143884018451
 20
0.2721309686212223
 10
-2.300730782970227
 20
0.668862122454195
 10
-2.221414546036521
 20
0.8672276993691537
 10
-2.023123953693021
 20
1.449100058320082
 10
-1.785175242885359
 20
1.621016891647213
 10
-1.467910295141671
 20
1.898728699328759
 10
-1.229961584334379
 20
2.083869904449779
 10
-1.13742597457531
 20
1.832606840357639
 10
-1.031670991993518
 20
1.925177442918174
 10
-1.044890364816191
 20
2.229337994189084
 10
-0.9391353822379351
 20
2.255786737776911
 10
-0.6615285529603042
 20
2.335132968543507
 10
-0.3574829780419838
 20
2.440927942897976
 10
-0.1591923856984799
 20
2.440927942897976
 10
0.0258788338200272
 20
2.467376686487336
 10
0.0523175794611471
 20
2.427703571104042
 10
0.0655369522834499
 20
2.374806083926801
 10
0.0787563251088125
 20
2.295459853160204
 10
0.1051950707568483
 20
2.176440507010314
  0
ENDBLK
  5
31
330
2F
100
AcDbEntity
  8
0
100
AcDbBlockEnd
  0
BLOCK
  5
39
330
38
100
AcDbEntity
  8
0
100
AcDbBlockBegin
  2
Дерево_Х_С
 70
2
 10
0.0
 20
0.0
 30
0.0
  3
Дерево_Х_С
  1

  0
CIRCLE
  5
3B
330
38
100
AcDbEntity
  8
СП_зеленые насаждения для ГП
 62
7
100
AcDbCircle
 10
0.0
 20
0.0
 30
0.0
 40
0.1525293461636466
  0
CIRCLE
  5
3C
330
38
100
AcDbEntity
  8
СП_зеленые насаждения для ГП
 62
7
100
AcDbCircle
 10
0.0
 20
0.0
 30
0.0
 40
0.1525293461636466
  0
HATCH
  5
3D
330
38
100
AcDbEntity
  8
СП_дендроплан
 62
7
370
30
420
16711422
100
AcDbHatch
 10
0.0
 20
0.0
 30
0.0
210
0.0
220
0.0
230
1.0
  2
SOLID
 70
1
 71
0
 91
1
 92
7
 72
1
 73
1
 93
2
 10
0.6000000000000001
 20
0.0
 42
1.0
 10
-0.6000000000000001
 20
0.0
 42
1.0
 97
0
 75
1
 76
1
 47
0.003632486949899
 98
1
 10
-0.0691045945470208
 20
-0.0565720388881772
450
0
451
0
460
0.0
461
0.0
452
0
462
1.0
453
2
463
0
 63
5
421
255
463
1
 63
2
421
16776960
470
LINEAR
  0
CIRCLE
  5
3E
330
38
100
AcDbEntity
  8
СП_дендроплан
370
30
100
AcDbCircle
 10
0.0
 20
0.0
 30
0.0
 40
0.6
  0
ATTDEF
  5
3F
330
38
100
AcDbEntity
  8
СП_дендроплан
100
AcDbText
 10
1.341767342493892
 20
-1.920602153766047
 30
0.0
 40
1.3
  1

  7
Ариал Стандарт
 11
1.341767342493892
 21
-0.6206021537660469
 31
0.0
100
AcDbAttributeDefinition
  3

  2
НОМЕР
 70
0
 74
3
  0
LWPOLYLINE
  5
40
330
38
100
AcDbEntity
  8
Defpoints
370
30
100
AcDbPolyline
 90
2
 70
0
 10
-0.4242640687119286
 20
0.4242640687119286
 10
0.4242640687119285
 20
-0.4242640687119285
  0
LWPOLYLINE
  5
41
330
38
100
AcDbEntity
  8
Defpoints
370
30
100
AcDbPolyline
 90
2
 70
0
 10
-0.4242640687119285
 20
-0.4242640687119285
 10
0.4242640687119282
 20
0.4242640687119282
  0
HATCH
  5
42
330
38
100
AcDbEntity
  8
СП_зеленые насаждения для ГП
100
AcDbHatch
 10
0.0
 20
0.0
 30
0.0
210
0.0
220
0.0
230
1.0
  2
SOLID
 70
1
 71
0
 91
1
 92
1
 93
92
 72
1
 10
-0.9924350841908627
 20
-0.1835372858305497
 11
-1.83264705716633
 21
-0.3746163900983612
 72
1
 10
-1.83264705716633
 20
-0.3746163900983612
 11
-1.731678091182527
 21
-0.7529079762834074
 72
1
 10
-1.731678091182527
 20
-0.7529079762834074
 11
-1.630709125198726
 21
-0.7276888134651305
 72
1
 10
-1.630709125198726
 20
-0.7276888134651305
 11
-1.630709125198726
 21
-0.8790052706103673
 72
1
 10
-1.630709125198726
 20
-0.8790052706103673
 11
-1.378286709703005
 21
-1.206858235432636
 72
1
 10
-1.378286709703005
 20
-1.206858235432636
 11
-1.277317743719202
 21
-1.105980400184938
 72
1
 10
-1.277317743719202
 20
-1.105980400184938
 11
-1.32780222724595
 21
-1.358174692577786
 72
1
 10
-1.32780222724595
 20
-1.358174692577786
 11
-1.226833261262147
 21
-1.408613610201635
 72
1
 10
-1.226833261262147
 20
-1.408613610201635
 11
-0.8229573962572445
 21
-1.005102564937241
 72
1
 10
-0.8229573962572445
 20
-1.005102564937241
 11
-1.428771193229753
 21
-2.064319243585102
 72
1
 10
-1.428771193229753
 20
-2.064319243585102
 11
-1.024895329294543
 21
-1.559930363073096
 72
1
 10
-1.024895329294543
 20
-1.559930363073096
 11
-0.8481996380206187
 21
-1.660808198320793
 72
1
 10
-0.8481996380206187
 20
-1.660808198320793
 11
-0.6715039478150189
 21
-1.559930363073096
 72
1
 10
-0.6715039478150189
 20
-1.559930363073096
 11
-0.6715039478150189
 21
-1.711247115944556
 72
1
 10
-0.6715039478150189
 20
-1.711247115944556
 11
-0.4190815323206678
 21
-1.76168573784218
 72
1
 10
-0.4190815323206678
 20
-1.76168573784218
 11
-0.0404479090791376
 21
-1.812124655466029
 72
1
 10
-0.0404479090791376
 20
-1.812124655466029
 11
-0.0404479090791376
 21
-1.459052527825484
 72
1
 10
-0.0404479090791376
 20
-1.459052527825484
 11
-0.0404479090791376
 21
-2.215635701265098
 72
1
 10
-0.0404479090791376
 20
-2.215635701265098
 11
0.0605210569060315
 21
-1.812124655466029
 72
1
 10
0.0605210569060315
 20
-1.812124655466029
 11
0.2877012306370119
 21
-1.786905196921528
 72
1
 10
0.2877012306370119
 20
-1.786905196921528
 11
0.2877012306370119
 21
-1.660808198320793
 72
1
 10
0.2877012306370119
 20
-1.660808198320793
 11
0.3886707613353781
 21
-1.736466279297679
 72
1
 10
0.3886707613353781
 20
-1.736466279297679
 11
0.7673043835072129
 21
-1.660808198320793
 72
1
 10
0.7673043835072129
 20
-1.660808198320793
 11
0.6915776592867857
 21
-1.509491445449332
 72
1
 10
0.6915776592867857
 20
-1.509491445449332
 11
0.8177888670339613
 21
-1.559930363073096
 72
1
 10
0.8177888670339613
 20
-1.559930363073096
 11
1.019726799002934
 21
-1.433833068746136
 72
1
 10
1.019726799002934
 20
-1.433833068746136
 11
0.7168199010501581
 21
-0.7024693543857836
 72
1
 10
0.7168199010501581
 20
-0.7024693543857836
 11
1.120695764986737
 21
-1.383394151122372
 72
1
 10
1.120695764986737
 20
-1.383394151122372
 11
1.246906972733912
 21
-1.257296857330175
 72
1
 10
1.246906972733912
 20
-1.257296857330175
 11
1.145938006750111
 21
-1.080760941105591
 72
1
 10
1.145938006750111
 20
-1.080760941105591
 11
1.347875938717715
 21
-1.206858235432636
 72
1
 10
1.347875938717715
 20
-1.206858235432636
 11
1.499329388228265
 21
-0.9798831058579793
 72
1
 10
1.499329388228265
 20
-0.9798831058579793
 11
1.852720769707787
 21
-1.156419317808787
 72
1
 10
1.852720769707787
 20
-1.156419317808787
 11
1.575056112448694
 21
-0.9042247291548682
 72
1
 10
1.575056112448694
 20
-0.9042247291548682
 11
1.676025078432495
 21
-0.7529079762834074
 72
1
 10
1.676025078432495
 20
-0.7529079762834074
 11
1.499329388228265
 21
-0.6268109782174331
 72
1
 10
1.499329388228265
 20
-0.6268109782174331
 11
1.751751803722618
 21
-0.7024693543857836
 72
1
 10
1.751751803722618
 20
-0.7024693543857836
 11
1.726509561959244
 21
-0.6268109782174331
 72
1
 10
1.726509561959244
 20
-0.6268109782174331
 11
1.80223628618104
 21
-0.3493969310190135
 72
1
 10
1.80223628618104
 20
-0.3493969310190135
 11
1.827478527944415
 21
-0.071983179546903
 72
1
 10
1.827478527944415
 20
-0.071983179546903
 11
0.9944845572395593
 21
-0.071983179546903
 72
1
 10
0.9944845572395593
 20
-0.071983179546903
 11
2.534261290902091
 21
-0.0467637210023168
 72
1
 10
2.534261290902091
 20
-0.0467637210023168
 11
1.827478527944415
 21
0.0036751966214457
 72
1
 10
1.827478527944415
 20
0.0036751966214457
 11
1.776994044417666
 21
0.2306503261961037
 72
1
 10
1.776994044417666
 20
0.2306503261961037
 11
1.448844904701517
 21
0.2306503261961037
 72
1
 10
1.448844904701517
 20
0.2306503261961037
 11
1.776994044417666
 21
0.30630840717299
 72
1
 10
1.776994044417666
 20
0.30630840717299
 11
1.701267320195871
 21
0.6846002890842602
 72
1
 10
1.701267320195871
 20
0.6846002890842602
 11
1.625540595975441
 21
0.9367945820119559
 72
1
 10
1.625540595975441
 20
0.9367945820119559
 11
1.347875938717715
 21
0.8106972876849952
 72
1
 10
1.347875938717715
 20
0.8106972876849952
 11
2.004174218148645
 21
1.315086168731762
 72
1
 10
2.004174218148645
 20
1.315086168731762
 11
1.524571629991639
 21
1.037672417259566
 72
1
 10
1.524571629991639
 20
1.037672417259566
 11
1.322633696954341
 21
1.2898667096525
 72
1
 10
1.322633696954341
 20
1.2898667096525
 11
1.171180248513483
 21
1.188989170131027
 72
1
 10
1.171180248513483
 20
1.188989170131027
 11
1.196422490276859
 21
1.415964003979374
 72
1
 10
1.196422490276859
 20
1.415964003979374
 11
0.9692423154761869
 21
1.56728075685092
 72
1
 10
0.9692423154761869
 20
1.56728075685092
 11
1.070211282529682
 21
1.996011261194576
 72
1
 10
1.070211282529682
 20
1.996011261194576
 11
0.868273349491016
 21
1.668158592098532
 72
1
 10
0.868273349491016
 20
1.668158592098532
 11
0.5653664515396084
 21
1.794255590699267
 72
1
 10
0.5653664515396084
 20
1.794255590699267
 11
0.5653664515396084
 21
1.996011261194576
 72
1
 10
0.5653664515396084
 20
1.996011261194576
 11
0.3886707613353781
 21
1.516841839227071
 72
1
 10
0.3886707613353781
 20
1.516841839227071
 11
0.4139130020290587
 21
1.844694508323116
 72
1
 10
0.4139130020290587
 20
1.844694508323116
 11
0.2624589888736359
 21
1.844694508323116
 72
1
 10
0.2624589888736359
 20
1.844694508323116
 11
0.2372167471102635
 21
1.642939133019269
 72
1
 10
0.2372167471102635
 20
1.642939133019269
 11
0.1614900228898346
 21
1.869913966867617
 72
1
 10
0.1614900228898346
 20
1.869913966867617
 11
0.0857632986694057
 21
1.844694508323116
 72
1
 10
0.0857632986694057
 20
1.844694508323116
 11
0.0100365733792849
 21
1.138550252507178
 72
1
 10
0.0100365733792849
 20
1.138550252507178
 11
-0.0277447986175492
 21
2.601868286957409
 72
1
 10
-0.0277447986175492
 20
2.601868286957409
 11
-0.090932392605886
 21
1.340305627276349
 72
1
 10
-0.090932392605886
 20
1.340305627276349
 11
-0.2676280828101163
 21
1.844694508323116
 72
1
 10
-0.2676280828101163
 20
1.844694508323116
 11
-0.2928703245734905
 21
1.617719674474683
 72
1
 10
-0.2928703245734905
 20
1.617719674474683
 11
-0.5452927400678433
 21
1.920352884491464
 72
1
 10
-0.5452927400678433
 20
1.920352884491464
 11
-0.5200504983044691
 21
1.592500215395422
 72
1
 10
-0.5200504983044691
 20
1.592500215395422
 11
-0.8229573962572445
 21
1.844694508323116
 72
1
 10
-0.8229573962572445
 20
1.844694508323116
 11
-0.6967461885087012
 21
1.390744544900112
 72
1
 10
-0.6967461885087012
 20
1.390744544900112
 11
-0.8481996380206187
 21
1.642939133019269
 72
1
 10
-0.8481996380206187
 20
1.642939133019269
 11
-1.151106535972026
 21
1.466402921603223
 72
1
 10
-1.151106535972026
 20
1.466402921603223
 11
-1.100622053514972
 21
1.340305627276349
 72
1
 10
-1.100622053514972
 20
1.340305627276349
 11
-1.252075503025521
 21
1.441183462523961
 72
1
 10
-1.252075503025521
 20
1.441183462523961
 11
-1.428771193229753
 21
1.239427792028652
 72
1
 10
-1.428771193229753
 20
1.239427792028652
 11
-1.277317743719202
 21
1.062891875804153
 72
1
 10
-1.277317743719202
 20
1.062891875804153
 11
-1.83264705716633
 21
1.188989170131027
 72
1
 10
-1.83264705716633
 20
1.188989170131027
 11
-1.403528951466377
 21
0.9620140405564559
 72
1
 10
-1.403528951466377
 20
0.9620140405564559
 11
-1.6559513669621
 21
0.9620140405564559
 72
1
 10
-1.6559513669621
 20
0.9620140405564559
 11
-1.731678091182527
 21
0.8106972876849952
 72
1
 10
-1.731678091182527
 20
0.8106972876849952
 11
-1.630709125198726
 21
0.6846002890842602
 72
1
 10
-1.630709125198726
 20
0.6846002890842602
 11
-1.756920332945901
 21
0.6593808305397593
 72
1
 10
-1.756920332945901
 20
0.6593808305397593
 11
-1.80740481647265
 21
0.2810889480936414
 72
1
 10
-1.80740481647265
 20
0.2810889480936414
 11
-1.706435850488846
 21
0.2810889480936414
 72
1
 10
-1.706435850488846
 20
0.2810889480936414
 11
-1.83264705716633
 21
0.2054308671168403
 72
1
 10
-1.83264705716633
 20
0.2054308671168403
 11
-1.706435850488846
 21
0.079333573324643
 72
1
 10
-1.706435850488846
 20
0.079333573324643
 11
-2.678139389112289
 21
-0.168011613727252
 72
1
 10
-2.678139389112289
 20
-0.168011613727252
 11
-0.9924350841908627
 21
-0.1835372858305497
 97
1
330
7E0A
 75
1
 76
1
 98
1
 10
-829.9559539826786
 20
-742.2467909498179
450
0
451
0
460
0.0
461
0.0
452
0
462
1.0
453
2
463
0
 63
79
421
3692834
463
1
 63
65
421
8171865
470
INVSPHERICAL
  0
LWPOLYLINE
  5
43
330
38
100
AcDbEntity
  8
СП_зеленые насаждения для ГП
 62
7
370
9
440
33554585
100
AcDbPolyline
 90
92
 70
1
 10
-0.9924350841908627
 20
-0.1835372858305497
 10
-1.83264705716633
 20
-0.3746163900983612
 10
-1.731678091182527
 20
-0.7529079762834074
 10
-1.630709125198726
 20
-0.7276888134651305
 10
-1.630709125198726
 20
-0.8790052706103673
 10
-1.378286709703005
 20
-1.206858235432636
 10
-1.277317743719202
 20
-1.105980400184938
 10
-1.32780222724595
 20
-1.358174692577786
 10
-1.226833261262147
 20
-1.408613610201635
 10
-0.8229573962572445
 20
-1.005102564937241
 10
-1.428771193229753
 20
-2.064319243585102
 10
-1.024895329294543
 20
-1.559930363073096
 10
-0.8481996380206187
 20
-1.660808198320793
 10
-0.6715039478150189
 20
-1.559930363073096
 10
-0.6715039478150189
 20
-1.711247115944556
 10
-0.4190815323206678
 20
-1.76168573784218
 10
-0.0404479090791376
 20
-1.812124655466029
 10
-0.0404479090791376
 20
-1.459052527825484
 10
-0.0404479090791376
 20
-2.215635701265098
 10
0.0605210569060315
 20
-1.812124655466029
 10
0.2877012306370119
 20
-1.786905196921528
 10
0.2877012306370119
 20
-1.660808198320793
 10
0.3886707613353781
 20
-1.736466279297679
 10
0.7673043835072129
 20
-1.660808198320793
 10
0.6915776592867857
 20
-1.509491445449332
 10
0.8177888670339613
 20
-1.559930363073096
 10
1.019726799002934
 20
-1.433833068746136
 10
0.7168199010501581
 20
-0.7024693543857836
 10
1.120695764986737
 20
-1.383394151122372
 10
1.246906972733912
 20
-1.257296857330175
 10
1.145938006750111
 20
-1.080760941105591
 10
1.347875938717715
 20
-1.206858235432636
 10
1.499329388228265
 20
-0.9798831058579793
 10
1.852720769707787
 20
-1.156419317808787
 10
1.575056112448694
 20
-0.9042247291548682
 10
1.676025078432495
 20
-0.7529079762834074
 10
1.499329388228265
 20
-0.6268109782174331
 10
1.751751803722618
 20
-0.7024693543857836
 10
1.726509561959244
 20
-0.6268109782174331
 10
1.80223628618104
 20
-0.3493969310190135
 10
1.827478527944415
 20
-0.071983179546903
 10
0.9944845572395593
 20
-0.071983179546903
 10
2.534261290902091
 20
-0.0467637210023168
 10
1.827478527944415
 20
0.0036751966214457
 10
1.776994044417666
 20
0.2306503261961037
 10
1.448844904701517
 20
0.2306503261961037
 10
1.776994044417666
 20
0.30630840717299
 10
1.701267320195871
 20
0.6846002890842602
 10
1.625540595975441
 20
0.9367945820119559
 10
1.347875938717715
 20
0.8106972876849952
 10
2.004174218148645
 20
1.315086168731762
 10
1.524571629991639
 20
1.037672417259566
 10
1.322633696954341
 20
1.2898667096525
 10
1.171180248513483
 20
1.188989170131027
 10
1.196422490276859
 20
1.415964003979374
 10
0.9692423154761869
 20
1.56728075685092
 10
1.070211282529682
 20
1.996011261194576
 10
0.868273349491016
 20
1.668158592098532
 10
0.5653664515396084
 20
1.794255590699267
 10
0.5653664515396084
 20
1.996011261194576
 10
0.3886707613353781
 20
1.516841839227071
 10
0.4139130020290587
 20
1.844694508323116
 10
0.2624589888736359
 20
1.844694508323116
 10
0.2372167471102635
 20
1.642939133019269
 10
0.1614900228898346
 20
1.869913966867617
 10
0.0857632986694057
 20
1.844694508323116
 10
0.0100365733792849
 20
1.138550252507178
 10
-0.0277447986175492
 20
2.601868286957409
 10
-0.090932392605886
 20
1.340305627276349
 10
-0.2676280828101163
 20
1.844694508323116
 10
-0.2928703245734905
 20
1.617719674474683
 10
-0.5452927400678433
 20
1.920352884491464
 10
-0.5200504983044691
 20
1.592500215395422
 10
-0.8229573962572445
 20
1.844694508323116
 10
-0.6967461885087012
 20
1.390744544900112
 10
-0.8481996380206187
 20
1.642939133019269
 10
-1.151106535972026
 20
1.466402921603223
 10
-1.100622053514972
 20
1.340305627276349
 10
-1.252075503025521
 20
1.441183462523961
 10
-1.428771193229753
 20
1.239427792028652
 10
-1.277317743719202
 20
1.062891875804153
 10
-1.83264705716633
 20
1.188989170131027
 10
-1.403528951466377
 20
0.9620140405564559
 10
-1.6559513669621
 20
0.9620140405564559
 10
-1.731678091182527
 20
0.8106972876849952
 10
-1.630709125198726
 20
0.6846002890842602
 10
-1.756920332945901
 20
0.6593808305397593
 10
-1.80740481647265
 20
0.2810889480936414
 10
-1.706435850488846
 20
0.2810889480936414
 10
-1.83264705716633
 20
0.2054308671168403
 10
-1.706435850488846
 20
0.079333573324643
 10
-2.678139389112289
 20
-0.168011613727252
  0
ENDBLK
  5
3A
330
38
100
AcDbEntity
  8
0
100
AcDbBlockEnd
  0
BLOCK
  5
45
330
44
100
AcDbEntity
  8
0
100
AcDbBlockBegin
  2
Куст_Л_С
 70
2
 10
0.0
 20
0.0
 30
0.0
  3
Куст_Л_С
  1

  0
CIRCLE
  5
47
330
44
100
AcDbEntity
  8
СП_зеленые насаждения для ГП
 62
7
100
AcDbCircle
 10
0.0
 20
0.0
 30
0.0
 40
0.1525293461636466
  0
CIRCLE
  5
48
330
44
100
AcDbEntity
  8
Defpoints
370
30
100
AcDbCircle
 10
0.0
 20
0.0
 30
0.0
 40
0.65
  0
CIRCLE
  5
49
330
44
100
AcDbEntity
  8
Defpoints
370
30
100
AcDbCircle
 10
0.0
 20
0.0
 30
0.0
 40
0.5
  0
ATTDEF
  5
4A
330
44
100
AcDbEntity
  8
0
100
AcDbText
 10
1.252858634634752
 20
-0.6421562028221424
 30
0.0
 40
1.3
  1

  7
Ариал Стандарт
 11
1.252858634634752
 21
0.6578437971778577
 31
0.0
100
AcDbAttributeDefinition
  3

  2
НОМЕР
 70
0
 74
3
  0
HATCH
  5
4B
330
44
100
AcDbEntity
  8
СП_зеленые насаждения для ГП
100
AcDbHatch
 10
0.0
 20
0.0
 30
0.0
210
0.0
220
0.0
230
1.0
  2
SOLID
 70
1
 71
0
 91
1
 92
1
 93
102
 72
1
 10
0.0548586341216364
 20
0.5437681074292797
 11
0.0447964994712002
 21
0.5471234206618263
 72
1
 10
0.0447964994712038
 20
0.5471234206618263
 11
0.0447964994712038
 21
0.5571893603598408
 72
1
 10
0.0447964994712038
 20
0.5571893603598426
 11
0.048150544354888
 21
0.573965926522936
 72
1
 10
0.0481505443548897
 20
0.5739659265229378
 11
0.0414424545866519
 21
0.5974531191515133
 72
1
 10
0.0414424545866439
 20
0.5974531191515098
 11
0.0414424545866439
 21
0.6276509382455542
 72
1
 10
0.0414424545866439
 20
0.6276509382455515
 11
0.0984612176123472
 21
0.617584998547537
 72
1
 10
0.0984612176123534
 20
0.6175849985475423
 11
0.1185854869157819
 21
0.6175849985475423
 72
1
 10
0.1185854869157765
 20
0.6175849985475423
 11
0.1722502050584005
 21
0.5940978059189668
 72
1
 10
0.172250205058404
 20
0.5940978059189632
 11
0.2594553720380635
 21
0.5672553000578544
 72
1
 10
0.2594553720380688
 20
0.5672553000578588
 11
0.2963498657603569
 21
0.5337021677312688
 72
1
 10
0.2963498657603481
 20
0.5337021677312705
 11
0.3533686287868275
 21
0.4699512163106503
 72
1
 10
0.3533686287868321
 20
0.4699512163106476
 11
0.3667848083220226
 21
0.4699512163106476
 72
1
 10
0.3667848083220235
 20
0.4699512163106476
 11
0.4103873918125505
 21
0.453174650147151
 72
1
 10
0.4103873918125487
 20
0.4531746501471474
 11
0.5009466036768586
 21
0.3760024457963542
 72
1
 10
0.5009466036768586
 20
0.3760024457963524
 11
0.524424917863179
 21
0.3223174340737334
 72
1
 10
0.524424917863179
 20
0.3223174340737387
 11
0.5713815462375651
 21
0.2518558561880253
 72
1
 10
0.5713815462375678
 20
0.2518558561880226
 11
0.5646734564692357
 21
0.2183027238618349
 72
1
 10
0.5646734564692366
 20
0.2183027238618394
 11
0.5411951422837049
 21
0.1847495915352493
 72
1
 10
0.5411951422836978
 20
0.1847495915352511
 11
0.4975925587929844
 21
0.2048814709308919
 72
1
 10
0.4975925587929879
 20
0.2048814709308857
 11
0.4841763792571143
 21
0.1847495915352448
 72
1
 10
0.4841763792571143
 20
0.1847495915352511
 11
0.5177168280964164
 21
0.1679730253717686
 72
1
 10
0.5177168280964182
 20
0.1679730253717651
 11
0.554611321818693
 21
0.1612623989066719
 72
1
 10
0.5546113218186903
 20
0.1612623989066719
 11
0.5881517706564239
 21
0.1713283386046864
 72
1
 10
0.5881517706564239
 20
0.1713283386046882
 11
0.5982139053094038
 21
0.1176433268820825
 72
1
 10
0.5982139053094073
 20
0.1176433268820816
 11
0.6015679501930915
 21
0.0639583151594625
 72
1
 10
0.6015679501930933
 20
0.0639583151594536
 11
0.6149841297282839
 21
-0.0668989009139578
 72
1
 10
0.6149841297282777
 20
-0.0668989009139551
 11
0.6116300848437239
 21
-0.1105179729385606
 72
1
 10
0.6116300848437248
 20
-0.1105179729385597
 11
0.5948598604248501
 21
-0.147426418497683
 72
1
 10
0.5948598604248474
 20
-0.1474264184976803
 11
0.5847977257726438
 21
-0.191045490522284
 72
1
 10
0.5847977257726455
 20
-0.1910454905222849
 11
0.5512572769341357
 21
-0.2682176948730781
 72
1
 10
0.5512572769341375
 20
-0.2682176948730799
 11
0.5445491871665951
 21
-0.2984155139671243
 72
1
 10
0.5445491871665951
 20
-0.2984155139671216
 11
0.5244249178631817
 21
-0.3319686462933218
 72
1
 10
0.524424917863179
 20
-0.3319686462933191
 11
0.5043006485597505
 21
-0.3554558389222704
 72
1
 10
0.5043006485597559
 20
-0.3554558389222748
 11
0.4841763792571188
 21
-0.3990749109464904
 72
1
 10
0.4841763792571143
 20
-0.3990749109464886
 11
0.4204495264631714
 21
-0.449404609436562
 72
1
 10
0.4204495264631731
 20
-0.44940460943657
 11
0.4170954815800929
 21
-0.4192067903425256
 72
1
 10
0.4170954815800911
 20
-0.4192067903425212
 11
0.4238035713477384
 21
-0.3923642844814124
 72
1
 10
0.4238035713477402
 20
-0.3923642844814097
 11
0.4372197508835063
 21
-0.3319686462933218
 72
1
 10
0.4372197508835072
 20
-0.3319686462933191
 11
0.4036793020443143
 21
-0.3621664653873635
 72
1
 10
0.4036793020443099
 20
-0.362166465387368
 11
0.4003252571604383
 21
-0.4057855374119601
 72
1
 10
0.4003252571604392
 20
-0.4057855374119583
 11
0.3768469429740247
 21
-0.4527599226691095
 72
1
 10
0.3768469429740264
 20
-0.4527599226691095
 11
0.3734928980902614
 21
-0.4762471152976708
 72
1
 10
0.3734928980902623
 20
-0.4762471152976673
 11
0.3768469429740273
 21
-0.4997343079262428
 72
1
 10
0.3768469429740264
 20
-0.4997343079262464
 11
0.3097660452963193
 21
-0.5299321270202908
 72
1
 10
0.3097660452963211
 20
-0.5299321270202952
 11
0.2225608783157762
 21
-0.5903277652079941
 72
1
 10
0.2225608783157753
 20
-0.5903277652079879
 11
0.1621880704062955
 21
-0.5936830784405345
 72
1
 10
0.1621880704062946
 20
-0.5936830784405345
 11
0.1286476215677821
 21
-0.6071043313714846
 72
1
 10
0.1286476215677865
 20
-0.6071043313714881
 11
0.0951071727284845
 21
-0.613814957836567
 72
1
 10
0.0951071727284827
 20
-0.613814957836567
 11
0.0313803199344473
 21
-0.613814957836567
 72
1
 10
0.031380319934442
 20
-0.613814957836567
 11
-0.0189303533229301
 21
-0.6171702710695017
 72
1
 10
-0.0189303533229292
 20
-0.6171702710695044
 11
-0.0558248470452174
 21
-0.6205255843016486
 72
1
 10
-0.0558248470452156
 20
-0.620525584301646
 11
-0.0826572061161848
 21
-0.6003937049060051
 72
1
 10
-0.0826572061161883
 20
-0.6003937049060042
 11
-0.0994274305350498
 21
-0.5802618255099752
 72
1
 10
-0.0994274305350444
 20
-0.5802618255099787
 11
-0.1128436100716002
 21
-0.5534193196488699
 72
1
 10
-0.1128436100716073
 20
-0.5534193196488673
 11
-0.0994274305350515
 21
-0.5131555608571974
 72
1
 10
-0.0994274305350444
 20
-0.5131555608571929
 11
-0.1128436100716002
 21
-0.4930236814611639
 72
1
 10
-0.1128436100716073
 20
-0.4930236814611746
 11
-0.1329678793743527
 21
-0.5030896211591891
 72
1
 10
-0.1329678793743483
 20
-0.5030896211591838
 11
-0.1463840589093373
 21
-0.5668405725794159
 72
1
 10
-0.1463840589093337
 20
-0.5668405725794159
 11
-0.1195516998384569
 21
-0.5903277652079915
 72
1
 10
-0.1195516998384605
 20
-0.5903277652079879
 11
-0.1564461935607495
 21
-0.603749018138549
 72
1
 10
-0.1564461935607468
 20
-0.6037490181385508
 11
-0.1799245077479394
 21
-0.5735511990445064
 72
1
 10
-0.1799245077479412
 20
-0.5735511990445019
 11
-0.2134649565872433
 21
-0.5634852593468755
 72
1
 10
-0.213464956587238
 20
-0.5634852593468764
 11
-0.267129674729178
 21
-0.5399980667183009
 72
1
 10
-0.2671296747291834
 20
-0.5399980667183044
 11
-0.3174403479873318
 21
-0.5366427534853697
 72
1
 10
-0.3174403479873291
 20
-0.5366427534853742
 11
-0.3643969763609372
 21
-0.5098002476242662
 72
1
 10
-0.3643969763609363
 20
-0.5098002476242627
 11
-0.4247697842704179
 21
-0.4460492962040306
 72
1
 10
-0.424769784270417
 20
-0.4460492962040306
 11
-0.4851425921798977
 21
-0.4024302241794251
 72
1
 10
-0.4851425921798977
 20
-0.402430224179426
 11
-0.5153289961354224
 21
-0.3554558389222748
 72
1
 10
-0.5153289961354233
 20
-0.3554558389222748
 11
-0.5421613552063924
 21
-0.3051261404322023
 72
1
 10
-0.542161355206396
 20
-0.3051261404322076
 11
-0.5824098938124491
 21
-0.2212433096159465
 72
1
 10
-0.5824098938124465
 20
-0.221243309615943
 11
-0.5488694449731577
 21
-0.2178879963833964
 72
1
 10
-0.5488694449731639
 20
-0.2178879963833964
 11
-0.5253911307858647
 21
-0.2581517551750663
 72
1
 10
-0.5253911307858559
 20
-0.2581517551750636
 11
-0.4851425921798969
 21
-0.2682176948730781
 72
1
 10
-0.4851425921798977
 20
-0.2682176948730799
 11
-0.4650183228764835
 21
-0.2682176948730799
 72
1
 10
-0.4650183228764888
 20
-0.2682176948730799
 11
-0.5153289961354286
 21
-0.187690177289741
 72
1
 10
-0.5153289961354233
 20
-0.1876901772897384
 11
-0.558931579625253
 21
-0.0937414067750604
 72
1
 10
-0.5589315796252592
 20
-0.0937414067750595
 11
-0.5689937142765773
 21
-0.1138732861710894
 72
1
 10
-0.5689937142765729
 20
-0.113873286171092
 11
-0.545515400089287
 21
-0.1608476714282432
 72
1
 10
-0.5455154000892932
 20
-0.1608476714282432
 11
-0.5689937142765791
 21
-0.1876901772897401
 72
1
 10
-0.5689937142765729
 20
-0.1876901772897384
 11
-0.5891179835800013
 21
-0.1910454905222849
 72
1
 10
-0.5891179835800031
 20
-0.1910454905222849
 11
-0.6058882079995467
 21
-0.1172285994036368
 72
1
 10
-0.6058882079995485
 20
-0.1172285994036386
 11
-0.6226584324192936
 21
-0.0165692024238808
 72
1
 10
-0.6226584324192928
 20
-0.0165692024238808
 11
-0.6193043875347373
 21
0.0706689416245387
 72
1
 10
-0.6193043875347399
 20
0.0706689416245396
 11
-0.5824098938124518
 21
0.1713283386046855
 72
1
 10
-0.5824098938124465
 20
0.1713283386046882
 11
-0.5622856245098085
 21
0.2216580370943726
 72
1
 10
-0.562285624509812
 20
0.2216580370943717
 11
-0.5119749512508722
 21
0.3692918193308773
 72
1
 10
-0.5119749512508704
 20
0.3692918193308756
 11
-0.4516021433412956
 21
0.4129108913554793
 72
1
 10
-0.4516021433412973
 20
0.4129108913554802
 11
-0.3711050661284947
 21
0.4833724692411936
 72
1
 10
-0.3711050661284929
 20
0.4833724692411892
 11
-0.3107322582190122
 21
0.5303468544983279
 72
1
 10
-0.3107322582190122
 20
0.5303468544983261
 11
-0.2872539440318196
 21
0.466595903078094
 72
1
 10
-0.2872539440318178
 20
0.4665959030781011
 11
-0.2604215849607412
 21
0.4900830957066766
 72
1
 10
-0.2604215849607456
 20
0.4900830957066731
 11
-0.2637756298446172
 21
0.5672553000578544
 72
1
 10
-0.2637756298446163
 20
0.5672553000578588
 11
-0.2369432707744377
 21
0.5739659265229378
 72
1
 10
-0.2369432707744394
 20
0.5739659265229378
 11
-0.1665083282127551
 21
0.5940978059189677
 72
1
 10
-0.1665083282127497
 20
0.5940978059189632
 11
-0.0893652958845026
 21
0.6209403117800845
 72
1
 10
-0.0893652958845053
 20
0.6209403117800889
 11
-0.0390546226255655
 21
0.6209403117800889
 72
1
 10
-0.0390546226255637
 20
0.6209403117800889
 11
0.0079020057489148
 21
0.6276509382455577
 72
1
 10
0.0079020057489103
 20
0.6276509382455515
 11
0.0146100955155815
 21
0.617584998547537
 72
1
 10
0.0146100955155859
 20
0.6175849985475423
 11
0.0179641403993633
 21
0.6041637456169813
 72
1
 10
0.0179641403993642
 20
0.6041637456169795
 11
0.0213181852839179
 21
0.5840318662209496
 72
1
 10
0.021318185283917
 20
0.5840318662209469
 11
0.0280262750523432
 21
0.5538340471269043
 72
1
 10
0.0280262750523406
 20
0.5538340471269052
 11
0.0548586341216355
 21
0.5437681074292788
 97
0
 75
1
 76
1
 98
1
 10
-8.421632114413004
 20
-6.649415789965474
450
0
451
0
460
0.0
461
0.0
452
0
462
1.0
453
2
463
0
 63
5
421
255
463
1
 63
2
421
16776960
470
LINEAR
  0
LWPOLYLINE
  5
4C
330
44
100
AcDbEntity
  8
СП_зеленые насаждения для ГП
 62
7
370
9
440
33554585
100
AcDbPolyline
 90
102
 70
1
 10
0.0548586341216364
 20
0.5437681074292797
 10
0.0447964994712038
 20
0.5471234206618263
 10
0.0447964994712038
 20
0.5571893603598426
 10
0.0481505443548897
 20
0.5739659265229378
 10
0.0414424545866439
 20
0.5974531191515098
 10
0.0414424545866439
 20
0.6276509382455515
 10
0.0984612176123534
 20
0.6175849985475423
 10
0.1185854869157765
 20
0.6175849985475423
 10
0.172250205058404
 20
0.5940978059189632
 10
0.2594553720380688
 20
0.5672553000578588
 10
0.2963498657603481
 20
0.5337021677312705
 10
0.3533686287868321
 20
0.4699512163106476
 10
0.3667848083220235
 20
0.4699512163106476
 10
0.4103873918125487
 20
0.4531746501471474
 10
0.5009466036768586
 20
0.3760024457963524
 10
0.524424917863179
 20
0.3223174340737387
 10
0.5713815462375678
 20
0.2518558561880226
 10
0.5646734564692366
 20
0.2183027238618394
 10
0.5411951422836978
 20
0.1847495915352511
 10
0.4975925587929879
 20
0.2048814709308857
 10
0.4841763792571143
 20
0.1847495915352511
 10
0.5177168280964182
 20
0.1679730253717651
 10
0.5546113218186903
 20
0.1612623989066719
 10
0.5881517706564239
 20
0.1713283386046882
 10
0.5982139053094073
 20
0.1176433268820816
 10
0.6015679501930933
 20
0.0639583151594536
 10
0.6149841297282777
 20
-0.0668989009139551
 10
0.6116300848437248
 20
-0.1105179729385597
 10
0.5948598604248474
 20
-0.1474264184976803
 10
0.5847977257726455
 20
-0.1910454905222849
 10
0.5512572769341375
 20
-0.2682176948730799
 10
0.5445491871665951
 20
-0.2984155139671216
 10
0.524424917863179
 20
-0.3319686462933191
 10
0.5043006485597559
 20
-0.3554558389222748
 10
0.4841763792571143
 20
-0.3990749109464886
 10
0.4204495264631731
 20
-0.44940460943657
 10
0.4170954815800911
 20
-0.4192067903425212
 10
0.4238035713477402
 20
-0.3923642844814097
 10
0.4372197508835072
 20
-0.3319686462933191
 10
0.4036793020443099
 20
-0.362166465387368
 10
0.4003252571604392
 20
-0.4057855374119583
 10
0.3768469429740264
 20
-0.4527599226691095
 10
0.3734928980902623
 20
-0.4762471152976673
 10
0.3768469429740264
 20
-0.4997343079262464
 10
0.3097660452963211
 20
-0.5299321270202952
 10
0.2225608783157753
 20
-0.5903277652079879
 10
0.1621880704062946
 20
-0.5936830784405345
 10
0.1286476215677865
 20
-0.6071043313714881
 10
0.0951071727284827
 20
-0.613814957836567
 10
0.031380319934442
 20
-0.613814957836567
 10
-0.0189303533229292
 20
-0.6171702710695044
 10
-0.0558248470452156
 20
-0.620525584301646
 10
-0.0826572061161883
 20
-0.6003937049060042
 10
-0.0994274305350444
 20
-0.5802618255099787
 10
-0.1128436100716073
 20
-0.5534193196488673
 10
-0.0994274305350444
 20
-0.5131555608571929
 10
-0.1128436100716073
 20
-0.4930236814611746
 10
-0.1329678793743483
 20
-0.5030896211591838
 10
-0.1463840589093337
 20
-0.5668405725794159
 10
-0.1195516998384605
 20
-0.5903277652079879
 10
-0.1564461935607468
 20
-0.6037490181385508
 10
-0.1799245077479412
 20
-0.5735511990445019
 10
-0.213464956587238
 20
-0.5634852593468764
 10
-0.2671296747291834
 20
-0.5399980667183044
 10
-0.3174403479873291
 20
-0.5366427534853742
 10
-0.3643969763609363
 20
-0.5098002476242627
 10
-0.424769784270417
 20
-0.4460492962040306
 10
-0.4851425921798977
 20
-0.402430224179426
 10
-0.5153289961354233
 20
-0.3554558389222748
 10
-0.542161355206396
 20
-0.3051261404322076
 10
-0.5824098938124465
 20
-0.221243309615943
 10
-0.5488694449731639
 20
-0.2178879963833964
 10
-0.5253911307858559
 20
-0.2581517551750636
 10
-0.4851425921798977
 20
-0.2682176948730799
 10
-0.4650183228764888
 20
-0.2682176948730799
 10
-0.5153289961354233
 20
-0.1876901772897384
 10
-0.5589315796252592
 20
-0.0937414067750595
 10
-0.5689937142765729
 20
-0.113873286171092
 10
-0.5455154000892932
 20
-0.1608476714282432
 10
-0.5689937142765729
 20
-0.1876901772897384
 10
-0.5891179835800031
 20
-0.1910454905222849
 10
-0.6058882079995485
 20
-0.1172285994036386
 10
-0.6226584324192928
 20
-0.0165692024238808
 10
-0.6193043875347399
 20
0.0706689416245396
 10
-0.5824098938124465
 20
0.1713283386046882
 10
-0.562285624509812
 20
0.2216580370943717
 10
-0.5119749512508704
 20
0.3692918193308756
 10
-0.4516021433412973
 20
0.4129108913554802
 10
-0.3711050661284929
 20
0.4833724692411892
 10
-0.3107322582190122
 20
0.5303468544983261
 10
-0.2872539440318178
 20
0.4665959030781011
 10
-0.2604215849607456
 20
0.4900830957066731
 10
-0.2637756298446163
 20
0.5672553000578588
 10
-0.2369432707744394
 20
0.5739659265229378
 10
-0.1665083282127497
 20
0.5940978059189632
 10
-0.0893652958845053
 20
0.6209403117800889
 10
-0.0390546226255637
 20
0.6209403117800889
 10
0.0079020057489103
 20
0.6276509382455515
 10
0.0146100955155859
 20
0.6175849985475423
 10
0.0179641403993642
 20
0.6041637456169795
 10
0.021318185283917
 20
0.5840318662209469
 10
0.0280262750523406
 20
0.5538340471269052
  0
ENDBLK
  5
46
330
44
100
AcDbEntity
  8
0
100
AcDbBlockEnd
  0
ENDSEC
  0
SECTION
  2
ENTITIES
  0
ENDSEC
  0
SECTION
  2
OBJECTS
  0
DICTIONARY
  5
A
330
0
100
AcDbDictionary
281
1
  3
ACAD_COLOR
350
B
  3
ACAD_GROUP
350
C
  3
ACAD_LAYOUT
350
D
  3
ACAD_MATERIAL
350
E
  3
ACAD_MLEADERSTYLE
350
F
  3
ACAD_MLINESTYLE
350
10
  3
ACAD_PLOTSETTINGS
350
11
  3
ACAD_PLOTSTYLENAME
350
12
  3
ACAD_SCALELIST
350
14
  3
ACAD_TABLESTYLE
350
15
  3
ACAD_VISUALSTYLE
350
16
  3
EZDXF_META
350
2D
  0
DICTIONARY
  5
B
330
A
100
AcDbDictionary
281
1
  0
DICTIONARY
  5
C
330
A
100
AcDbDictionary
281
1
  0
DICTIONARY
  5
D
330
A
100
AcDbDictionary
281
1
  3
Model
350
1A
  3
Layout1
350
1E
  0
DICTIONARY
  5
E
330
A
100
AcDbDictionary
281
1
  3
ByBlock
350
1F
  3
ByLayer
350
20
  3
Global
350
21
  0
DICTIONARY
  5
F
330
A
100
AcDbDictionary
281
1
  3
Standard
350
2C
  0
DICTIONARY
  5
10
330
A
100
AcDbDictionary
281
1
  3
Standard
350
22
  0
DICTIONARY
  5
11
330
A
100
AcDbDictionary
281
1
  0
ACDBDICTIONARYWDFLT
  5
12
330
A
100
AcDbDictionary
281
1
  3
Normal
350
13
100
AcDbDictionaryWithDefault
340
13
  0
ACDBPLACEHOLDER
  5
13
330
12
  0
DICTIONARY
  5
14
330
A
100
AcDbDictionary
281
1
  0
DICTIONARY
  5
15
330
A
100
AcDbDictionary
281
1
  0
DICTIONARY
  5
16
330
A
100
AcDbDictionary
281
1
  0
LAYOUT
  5
1A
330
D
100
AcDbPlotSettings
  1

  4
A3
  6

 40
7.5
 41
20.0
 42
7.5
 43
20.0
 44
420.0
 45
297.0
 46
0.0
 47
0.0
 48
0.0
 49
0.0
140
0.0
141
0.0
142
1.0
143
1.0
 70
1024
 72
1
 73
0
 74
5
  7

 75
16
 76
0
 77
2
 78
300
147
1.0
148
0.0
149
0.0
100
AcDbLayout
  1
Model
 70
1
 71
0
 10
0.0
 20
0.0
 11
420.0
 21
297.0
 12
0.0
 22
0.0
 32
0.0
 14
1e+20
 24
1e+20
 34
1e+20
 15
-1e+20
 25
-1e+20
 35
-1e+20
146
0.0
 13
0.0
 23
0.0
 33
0.0
 16
1.0
 26
0.0
 36
0.0
 17
0.0
 27
1.0
 37
0.0
 76
1
330
17
  0
LAYOUT
  5
1E
330
D
100
AcDbPlotSettings
  1

  4
A3
  6

 40
7.5
 41
20.0
 42
7.5
 43
20.0
 44
420.0
 45
297.0
 46
0.0
 47
0.0
 48
0.0
 49
0.0
140
0.0
141
0.0
142
1.0
143
1.0
 70
0
 72
1
 73
0
 74
5
  7

 75
16
 76
0
 77
2
 78
300
147
1.0
148
0.0
149
0.0
100
AcDbLayout
  1
Layout1
 70
1
 71
1
 10
0.0
 20
0.0
 11
420.0
 21
297.0
 12
0.0
 22
0.0
 32
0.0
 14
1e+20
 24
1e+20
 34
1e+20
 15
-1e+20
 25
-1e+20
 35
-1e+20
146
0.0
 13
0.0
 23
0.0
 33
0.0
 16
1.0
 26
0.0
 36
0.0
 17
0.0
 27
1.0
 37
0.0
 76
1
330
1B
  0
MATERIAL
  5
1F
102
{ACAD_REACTORS
330
E
102
}
330
E
100
AcDbMaterial
  1
ByBlock
  2

 70
0
 40
1.0
 71
1
 41
1.0
 91
-1023410177
 42
1.0
 72
1
  3

 73
1
 74
1
 75
1
 44
0.5
 73
0
 45
1.0
 46
1.0
 77
1
  4

 78
1
 79
1
170
1
 48
1.0
171
1
  6

172
1
173
1
174
1
140
1.0
141
1.0
175
1
  7

176
1
177
1
178
1
143
1.0
179
1
  8

270
1
271
1
272
1
145
1.0
146
1.0
273
1
  9

274
1
275
1
276
1
 42
1.0
 72
1
  3

 73
1
 74
1
 75
1
 94
63
  0
MATERIAL
  5
20
102
{ACAD_REACTORS
330
E
102
}
330
E
100
AcDbMaterial
  1
ByLayer
  2

 70
0
 40
1.0
 71
1
 41
1.0
 91
-1023410177
 42
1.0
 72
1
  3

 73
1
 74
1
 75
1
 44
0.5
 73
0
 45
1.0
 46
1.0
 77
1
  4

 78
1
 79
1
170
1
 48
1.0
171
1
  6

172
1
173
1
174
1
140
1.0
141
1.0
175
1
  7

176
1
177
1
178
1
143
1.0
179
1
  8

270
1
271
1
272
1
145
1.0
146
1.0
273
1
  9

274
1
275
1
276
1
 42
1.0
 72
1
  3

 73
1
 74
1
 75
1
 94
63
  0
MATERIAL
  5
21
102
{ACAD_REACTORS
330
E
102
}
330
E
100
AcDbMaterial
  1
Global
  2

 70
0
 40
1.0
 71
1
 41
1.0
 91
-1023410177
 42
1.0
 72
1
  3

 73
1
 74
1
 75
1
 44
0.5
 73
0
 45
1.0
 46
1.0
 77
1
  4

 78
1
 79
1
170
1
 48
1.0
171
1
  6

172
1
173
1
174
1
140
1.0
141
1.0
175
1
  7

176
1
177
1
178
1
143
1.0
179
1
  8

270
1
271
1
272
1
145
1.0
146
1.0
273
1
  9

274
1
275
1
276
1
 42
1.0
 72
1
  3

 73
1
 74
1
 75
1
 94
63
  0
MLINESTYLE
  5
22
102
{ACAD_REACTORS
330
10
102
}
330
10
100
AcDbMlineStyle
  2
Standard
 70
0
  3

 62
256
 51
90.0
 52
90.0
 71
2
 49
0.5
 62
256
  6
BYLAYER
 49
-0.5
 62
256
  6
BYLAYER
  0
MLEADERSTYLE
  5
2C
102
{ACAD_REACTORS
330
F
102
}
330
F
100
AcDbMLeaderStyle
179
2
170
2
171
1
172
0
 90
2
 40
0.0
 41
0.0
173
1
 91
-1056964608
 92
-2
290
1
 42
2.0
291
1
 43
8.0
  3
Standard
 44
4.0
300

342
29
174
1
175
1
176
0
178
1
 93
-1056964608
 45
4.0
292
0
297
0
 46
4.0
 94
-1056964608
 47
1.0
 49
1.0
140
1.0
294
1
141
0.0
177
0
142
1.0
295
0
296
0
143
3.75
271
0
272
9
273
9
  0
DICTIONARY
  5
2D
330
A
100
AcDbDictionary
280
1
281
1
  3
CREATED_BY_EZDXF
350
2E
  3
WRITTEN_BY_EZDXF
350
52
  0
DICTIONARYVAR
  5
2E
330
2D
100
DictionaryVariables
280
0
  1
1.4.4 @ 2026-09-24T07:08:32.372375+00:00
  0
DICTIONARYVAR
  5
52
330
2D
100
DictionaryVariables
280
0
  1
1.4.4 @ 2026-09-24T07:08:32.376867+00:00
  0
ENDSEC
  0
EOF
